<svg xmlns="http://www.w3.org/2000/svg" viewBox="0 0 200 200" role="img" aria-label="NIFS - Fire, Safety and Disaster Management emblem">
  <defs>
    <marker id="ahGreen" viewBox="0 0 10 10" refX="4" refY="5" markerWidth="2.6" markerHeight="2.6" orient="auto">
      <path d="M0 0 L10 5 L0 10 L3 5 Z" fill="#1E8E3E"/>
    </marker>
    <marker id="ahRed" viewBox="0 0 10 10" refX="4" refY="5" markerWidth="2.6" markerHeight="2.6" orient="auto">
      <path d="M0 0 L10 5 L0 10 L3 5 Z" fill="#E31E24"/>
    </marker>
    <marker id="ahOrange" viewBox="0 0 10 10" refX="4" refY="5" markerWidth="2.6" markerHeight="2.6" orient="auto">
      <path d="M0 0 L10 5 L0 10 L3 5 Z" fill="#F9A825"/>
    </marker>
    <path id="ringTop" d="M 34 100 A 66 66 0 1 1 166 100" fill="none"/>
    <path id="ringBottom" d="M 39.4 65 A 70 70 0 1 0 160.6 65" fill="none"/>
  </defs>
  <circle cx="100" cy="100" r="94" fill="#FFFFFF" stroke="#1A1A1A" stroke-width="2"/>
  <path d="M 162.8 47.3 A 82 82 0 0 0 32.8 53.0" fill="none" stroke="#1E8E3E" stroke-width="13" marker-end="url(#ahGreen)"/>
  <path d="M 22.9 72.0 A 82 82 0 0 0 92.9 181.7" fill="none" stroke="#E31E24" stroke-width="13" marker-end="url(#ahRed)"/>
  <path d="M 114.2 180.7 A 82 82 0 0 0 174.3 65.3" fill="none" stroke="#F9A825" stroke-width="13" marker-end="url(#ahOrange)"/>
  <text font-family="Arial, Helvetica, sans-serif" font-size="15" font-weight="bold" fill="#1A1A1A" letter-spacing="2">
    <textPath href="#ringTop" startOffset="2.5%">FIRE</textPath>
  </text>
  <text font-family="Arial, Helvetica, sans-serif" font-size="15" font-weight="bold" fill="#1A1A1A" letter-spacing="2">
    <textPath href="#ringTop" startOffset="52%">SAFETY</textPath>
  </text>
  <text font-family="Arial, Helvetica, sans-serif" font-size="15" font-weight="bold" fill="#1A1A1A" letter-spacing="2" text-anchor="middle">
    <textPath href="#ringBottom" startOffset="50%">DISASTER</textPath>
  </text>
  <circle cx="100" cy="100" r="48" fill="#FFFFFF" stroke="#1A1A1A" stroke-width="2.5"/>
  <g fill="#E31E24" stroke="#1A1A1A" stroke-width="1.2" stroke-linejoin="round">
    <path id="crossArm" d="M100 102 C 94 90 92 82 85 71 C 81 65 77 61 73 59 C 83 56 92 63 100 69 C 108 63 117 56 127 59 C 123 61 119 65 115 71 C 108 82 106 90 100 102 Z"/>
    <use href="#crossArm" transform="rotate(90 100 100)"/>
    <use href="#crossArm" transform="rotate(180 100 100)"/>
    <use href="#crossArm" transform="rotate(270 100 100)"/>
  </g>
  <circle cx="100" cy="100" r="21" fill="#FFFFFF" stroke="#1A1A1A" stroke-width="1.8"/>
  <g stroke="#B51218" stroke-width="2.4" stroke-linecap="round">
    <line x1="88" y1="112" x2="112" y2="88"/>
    <line x1="93" y1="116" x2="117" y2="92"/>
    <line x1="92" y1="110" x2="95" y2="113"/>
    <line x1="97" y1="105" x2="100" y2="108"/>
    <line x1="102" y1="100" x2="105" y2="103"/>
    <line x1="107" y1="95" x2="110" y2="98"/>
    <line x1="88" y1="88" x2="110" y2="110"/>
  </g>
  <path d="M 84 84 L 92 84 L 92 92 Z" fill="#B51218"/>
  <circle cx="100" cy="100" r="3.4" fill="#F9A825" stroke="#1A1A1A" stroke-width="0.8"/>
  <g font-family="Arial, Helvetica, sans-serif" font-weight="bold" text-anchor="middle">
    <path d="M 76 62 L 124 62 L 121 73 L 79 73 Z" fill="#E31E24" stroke="#1A1A1A" stroke-width="1"/>
    <text x="100" y="71" font-size="9.5" fill="#FFFFFF" letter-spacing="1.5">FIRE</text>
    <path d="M 76 138 L 124 138 L 121 127 L 79 127 Z" fill="#E31E24" stroke="#1A1A1A" stroke-width="1"/>
    <text x="100" y="136" font-size="8.5" fill="#FFFFFF" letter-spacing="1">SAFETY</text>
  </g>
</svg>
